<svg width="567" height="393" viewBox="0 0 567 393" fill="none" xmlns="http://www.w3.org/2000/svg">
<mask id="path-1-outside-1_32_145" maskUnits="userSpaceOnUse" x="0" y="0" width="567" height="393" fill="black">
<rect fill="white" width="567" height="393"/>
<path d="M91.9807 22.7857H126.802V57.6071H91.9807V22.7857ZM57.1593 22.7857H91.9807V57.6071H57.1593V22.7857ZM57.1593 57.6071H91.9807V92.4286H57.1593V57.6071ZM91.9807 57.6071H126.802V92.4286H91.9807V57.6071ZM126.802 57.6071H161.624V92.4286H126.802V57.6071ZM126.802 22.7857H161.624V57.6071H126.802V22.7857ZM161.624 22.7857H196.445V57.6071H161.624V22.7857ZM196.445 22.7857H231.266V57.6071H196.445V22.7857ZM196.445 57.6071H231.266V92.4286H196.445V57.6071ZM161.624 57.6071H196.445V92.4286H161.624V57.6071ZM196.445 92.4286H231.266V127.25H196.445V92.4286ZM231.266 57.6071H266.088V92.4286H231.266V57.6071ZM231.266 92.4286H266.088V127.25H231.266V92.4286ZM231.266 266.536H266.088V301.357H231.266V266.536ZM231.266 301.357H266.088V336.179H231.266V301.357ZM196.445 301.357H231.266V336.179H196.445V301.357ZM196.445 266.536H231.266V301.357H196.445V266.536ZM161.624 301.357H196.445V336.179H161.624V301.357ZM196.445 336.179H231.266V371H196.445V336.179ZM161.624 336.179H196.445V371H161.624V336.179ZM126.802 336.179H161.624V371H126.802V336.179ZM126.802 301.357H161.624V336.179H126.802V301.357ZM91.9807 336.179H126.802V371H91.9807V336.179ZM57.1593 336.179H91.9807V371H57.1593V336.179ZM57.1593 301.357H91.9807V336.179H57.1593V301.357ZM91.9807 301.357H126.802V336.179H91.9807V301.357ZM91.9807 266.536H126.802V301.357H91.9807V266.536ZM57.1593 266.536H91.9807V301.357H57.1593V266.536ZM22.3379 301.357H57.1593V336.179H22.3379V301.357ZM22.3379 266.536H57.1593V301.357H22.3379V266.536ZM22.3379 231.714H57.1593V266.536H22.3379V231.714ZM22.3379 196.893H57.1593V231.714H22.3379V196.893ZM22.3379 162.071H57.1593V196.893H22.3379V162.071ZM22.3379 127.25H57.1593V162.071H22.3379V127.25ZM22.3379 92.4286H57.1593V127.25H22.3379V92.4286ZM57.1593 92.4286H91.9807V127.25H57.1593V92.4286ZM22.3379 57.6071H57.1593V92.4286H22.3379V57.6071ZM91.9807 92.4286H126.802V127.25H91.9807V92.4286ZM57.1593 127.25H91.9807V162.071H57.1593V127.25ZM57.1593 162.071H91.9807V196.893H57.1593V162.071ZM57.1593 196.893H91.9807V231.714H57.1593V196.893ZM57.1593 231.714H91.9807V266.536H57.1593V231.714ZM335.821 22.7857H370.643V57.6071H335.821V22.7857ZM335.821 57.6071H370.643V92.4286H335.821V57.6071ZM335.821 92.4286H370.643V127.25H335.821V92.4286ZM370.643 92.4286H405.464V127.25H370.643V92.4286ZM370.643 127.25H405.464V162.071H370.643V127.25ZM405.464 127.25H440.286V162.071H405.464V127.25ZM440.286 127.25H475.107V162.071H440.286V127.25ZM440.286 92.4286H475.107V127.25H440.286V92.4286ZM475.107 92.4286H509.929V127.25H475.107V92.4286ZM509.929 92.4286H544.75V127.25H509.929V92.4286ZM509.929 57.6071H544.75V92.4286H509.929V57.6071ZM509.929 22.7857H544.75V57.6071H509.929V22.7857ZM475.107 22.7857H509.929V57.6071H475.107V22.7857ZM475.107 57.6071H509.929V92.4286H475.107V57.6071ZM475.107 127.25H509.929V162.071H475.107V127.25ZM335.821 127.25H370.643V162.071H335.821V127.25ZM301 92.4286H335.821V127.25H301V92.4286ZM301 57.6071H335.821V92.4286H301V57.6071ZM301 22.7857H335.821V57.6071H301V22.7857ZM370.643 162.071H405.464V196.893H370.643V162.071ZM405.464 162.071H440.286V196.893H405.464V162.071ZM440.286 162.071H475.107V196.893H440.286V162.071ZM440.286 196.893H475.107V231.714H440.286V196.893ZM475.107 196.893H509.929V231.714H475.107V196.893ZM475.107 231.714H509.929V266.536H475.107V231.714ZM440.286 231.714H475.107V266.536H440.286V231.714ZM509.929 336.179H544.75V371H509.929V336.179ZM509.929 301.357H544.75V336.179H509.929V301.357ZM509.929 266.536H544.75V301.357H509.929V266.536ZM509.929 231.714H544.75V266.536H509.929V231.714ZM475.107 266.536H509.929V301.357H475.107V266.536ZM475.107 301.357H509.929V336.179H475.107V301.357ZM475.107 336.179H509.929V371H475.107V336.179ZM301 336.179H335.821V371H301V336.179ZM335.821 336.179H370.643V371H335.821V336.179ZM335.821 301.357H370.643V336.179H335.821V301.357ZM335.821 266.536H370.643V301.357H335.821V266.536ZM301 266.536H335.821V301.357H301V266.536ZM301 231.714H335.821V266.536H301V231.714ZM301 301.357H335.821V336.179H301V301.357ZM335.821 231.714H370.643V266.536H335.821V231.714ZM370.643 231.714H405.464V266.536H370.643V231.714ZM370.643 196.893H405.464V231.714H370.643V196.893ZM335.821 196.893H370.643V231.714H335.821V196.893ZM405.464 196.893H440.286V231.714H405.464V196.893Z"/>
</mask>
<path d="M91.9807 22.7857H126.802V57.6071H91.9807V22.7857ZM57.1593 22.7857H91.9807V57.6071H57.1593V22.7857ZM57.1593 57.6071H91.9807V92.4286H57.1593V57.6071ZM91.9807 57.6071H126.802V92.4286H91.9807V57.6071ZM126.802 57.6071H161.624V92.4286H126.802V57.6071ZM126.802 22.7857H161.624V57.6071H126.802V22.7857ZM161.624 22.7857H196.445V57.6071H161.624V22.7857ZM196.445 22.7857H231.266V57.6071H196.445V22.7857ZM196.445 57.6071H231.266V92.4286H196.445V57.6071ZM161.624 57.6071H196.445V92.4286H161.624V57.6071ZM196.445 92.4286H231.266V127.25H196.445V92.4286ZM231.266 57.6071H266.088V92.4286H231.266V57.6071ZM231.266 92.4286H266.088V127.25H231.266V92.4286ZM231.266 266.536H266.088V301.357H231.266V266.536ZM231.266 301.357H266.088V336.179H231.266V301.357ZM196.445 301.357H231.266V336.179H196.445V301.357ZM196.445 266.536H231.266V301.357H196.445V266.536ZM161.624 301.357H196.445V336.179H161.624V301.357ZM196.445 336.179H231.266V371H196.445V336.179ZM161.624 336.179H196.445V371H161.624V336.179ZM126.802 336.179H161.624V371H126.802V336.179ZM126.802 301.357H161.624V336.179H126.802V301.357ZM91.9807 336.179H126.802V371H91.9807V336.179ZM57.1593 336.179H91.9807V371H57.1593V336.179ZM57.1593 301.357H91.9807V336.179H57.1593V301.357ZM91.9807 301.357H126.802V336.179H91.9807V301.357ZM91.9807 266.536H126.802V301.357H91.9807V266.536ZM57.1593 266.536H91.9807V301.357H57.1593V266.536ZM22.3379 301.357H57.1593V336.179H22.3379V301.357ZM22.3379 266.536H57.1593V301.357H22.3379V266.536ZM22.3379 231.714H57.1593V266.536H22.3379V231.714ZM22.3379 196.893H57.1593V231.714H22.3379V196.893ZM22.3379 162.071H57.1593V196.893H22.3379V162.071ZM22.3379 127.25H57.1593V162.071H22.3379V127.25ZM22.3379 92.4286H57.1593V127.25H22.3379V92.4286ZM57.1593 92.4286H91.9807V127.25H57.1593V92.4286ZM22.3379 57.6071H57.1593V92.4286H22.3379V57.6071ZM91.9807 92.4286H126.802V127.25H91.9807V92.4286ZM57.1593 127.25H91.9807V162.071H57.1593V127.25ZM57.1593 162.071H91.9807V196.893H57.1593V162.071ZM57.1593 196.893H91.9807V231.714H57.1593V196.893ZM57.1593 231.714H91.9807V266.536H57.1593V231.714ZM335.821 22.7857H370.643V57.6071H335.821V22.7857ZM335.821 57.6071H370.643V92.4286H335.821V57.6071ZM335.821 92.4286H370.643V127.25H335.821V92.4286ZM370.643 92.4286H405.464V127.25H370.643V92.4286ZM370.643 127.25H405.464V162.071H370.643V127.25ZM405.464 127.25H440.286V162.071H405.464V127.25ZM440.286 127.25H475.107V162.071H440.286V127.25ZM440.286 92.4286H475.107V127.25H440.286V92.4286ZM475.107 92.4286H509.929V127.25H475.107V92.4286ZM509.929 92.4286H544.75V127.25H509.929V92.4286ZM509.929 57.6071H544.75V92.4286H509.929V57.6071ZM509.929 22.7857H544.75V57.6071H509.929V22.7857ZM475.107 22.7857H509.929V57.6071H475.107V22.7857ZM475.107 57.6071H509.929V92.4286H475.107V57.6071ZM475.107 127.25H509.929V162.071H475.107V127.25ZM335.821 127.25H370.643V162.071H335.821V127.25ZM301 92.4286H335.821V127.25H301V92.4286ZM301 57.6071H335.821V92.4286H301V57.6071ZM301 22.7857H335.821V57.6071H301V22.7857ZM370.643 162.071H405.464V196.893H370.643V162.071ZM405.464 162.071H440.286V196.893H405.464V162.071ZM440.286 162.071H475.107V196.893H440.286V162.071ZM440.286 196.893H475.107V231.714H440.286V196.893ZM475.107 196.893H509.929V231.714H475.107V196.893ZM475.107 231.714H509.929V266.536H475.107V231.714ZM440.286 231.714H475.107V266.536H440.286V231.714ZM509.929 336.179H544.75V371H509.929V336.179ZM509.929 301.357H544.75V336.179H509.929V301.357ZM509.929 266.536H544.75V301.357H509.929V266.536ZM509.929 231.714H544.75V266.536H509.929V231.714ZM475.107 266.536H509.929V301.357H475.107V266.536ZM475.107 301.357H509.929V336.179H475.107V301.357ZM475.107 336.179H509.929V371H475.107V336.179ZM301 336.179H335.821V371H301V336.179ZM335.821 336.179H370.643V371H335.821V336.179ZM335.821 301.357H370.643V336.179H335.821V301.357ZM335.821 266.536H370.643V301.357H335.821V266.536ZM301 266.536H335.821V301.357H301V266.536ZM301 231.714H335.821V266.536H301V231.714ZM301 301.357H335.821V336.179H301V301.357ZM335.821 231.714H370.643V266.536H335.821V231.714ZM370.643 231.714H405.464V266.536H370.643V231.714ZM370.643 196.893H405.464V231.714H370.643V196.893ZM335.821 196.893H370.643V231.714H335.821V196.893ZM405.464 196.893H440.286V231.714H405.464V196.893Z" fill="white"/>
<path d="M91.9807 22.7857V0.785725H69.9807V22.7857H91.9807ZM126.802 22.7857H148.802V0.785725H126.802V22.7857ZM126.802 57.6071V79.6071H148.802V57.6071H126.802ZM91.9807 57.6071H69.9807V79.6071H91.9807V57.6071ZM57.1593 22.7857V0.785725H35.1593V22.7857H57.1593ZM91.9807 22.7857H113.981V0.785725H91.9807V22.7857ZM91.9807 57.6071V79.6071H113.981V57.6071H91.9807ZM57.1593 57.6071H35.1593V79.6071H57.1593V57.6071ZM57.1593 57.6071V35.6071H35.1593V57.6071H57.1593ZM91.9807 57.6071H113.981V35.6071H91.9807V57.6071ZM91.9807 92.4286V114.429H113.981V92.4286H91.9807ZM57.1593 92.4286H35.1593V114.429H57.1593V92.4286ZM91.9807 57.6071V35.6071H69.9807V57.6071H91.9807ZM126.802 57.6071H148.802V35.6071H126.802V57.6071ZM126.802 92.4286V114.429H148.802V92.4286H126.802ZM91.9807 92.4286H69.9807V114.429H91.9807V92.4286ZM126.802 57.6071V35.6071H104.802V57.6071H126.802ZM161.624 57.6071H183.624V35.6071H161.624V57.6071ZM161.624 92.4286V114.429H183.624V92.4286H161.624ZM126.802 92.4286H104.802V114.429H126.802V92.4286ZM126.802 22.7857V0.785725H104.802V22.7857H126.802ZM161.624 22.7857H183.624V0.785725H161.624V22.7857ZM161.624 57.6071V79.6071H183.624V57.6071H161.624ZM126.802 57.6071H104.802V79.6071H126.802V57.6071ZM161.624 22.7857V0.785725H139.624V22.7857H161.624ZM196.445 22.7857H218.445V0.785725H196.445V22.7857ZM196.445 57.6071V79.6071H218.445V57.6071H196.445ZM161.624 57.6071H139.624V79.6071H161.624V57.6071ZM196.445 22.7857V0.785725H174.445V22.7857H196.445ZM231.266 22.7857H253.266V0.785725H231.266V22.7857ZM231.266 57.6071V79.6071H253.266V57.6071H231.266ZM196.445 57.6071H174.445V79.6071H196.445V57.6071ZM196.445 57.6071V35.6071H174.445V57.6071H196.445ZM231.266 57.6071H253.266V35.6071H231.266V57.6071ZM231.266 92.4286V114.429H253.266V92.4286H231.266ZM196.445 92.4286H174.445V114.429H196.445V92.4286ZM161.624 57.6071V35.6071H139.624V57.6071H161.624ZM196.445 57.6071H218.445V35.6071H196.445V57.6071ZM196.445 92.4286V114.429H218.445V92.4286H196.445ZM161.624 92.4286H139.624V114.429H161.624V92.4286ZM196.445 92.4286V70.4286H174.445V92.4286H196.445ZM231.266 92.4286H253.266V70.4286H231.266V92.4286ZM231.266 127.25V149.25H253.266V127.25H231.266ZM196.445 127.25H174.445V149.25H196.445V127.25ZM231.266 57.6071V35.6071H209.266V57.6071H231.266ZM266.088 57.6071H288.088V35.6071H266.088V57.6071ZM266.088 92.4286V114.429H288.088V92.4286H266.088ZM231.266 92.4286H209.266V114.429H231.266V92.4286ZM231.266 92.4286V70.4286H209.266V92.4286H231.266ZM266.088 92.4286H288.088V70.4286H266.088V92.4286ZM266.088 127.25V149.25H288.088V127.25H266.088ZM231.266 127.25H209.266V149.25H231.266V127.25ZM231.266 266.536V244.536H209.266V266.536H231.266ZM266.088 266.536H288.088V244.536H266.088V266.536ZM266.088 301.357V323.357H288.088V301.357H266.088ZM231.266 301.357H209.266V323.357H231.266V301.357ZM231.266 301.357V279.357H209.266V301.357H231.266ZM266.088 301.357H288.088V279.357H266.088V301.357ZM266.088 336.179V358.179H288.088V336.179H266.088ZM231.266 336.179H209.266V358.179H231.266V336.179ZM196.445 301.357V279.357H174.445V301.357H196.445ZM231.266 301.357H253.266V279.357H231.266V301.357ZM231.266 336.179V358.179H253.266V336.179H231.266ZM196.445 336.179H174.445V358.179H196.445V336.179ZM196.445 266.536V244.536H174.445V266.536H196.445ZM231.266 266.536H253.266V244.536H231.266V266.536ZM231.266 301.357V323.357H253.266V301.357H231.266ZM196.445 301.357H174.445V323.357H196.445V301.357ZM161.624 301.357V279.357H139.624V301.357H161.624ZM196.445 301.357H218.445V279.357H196.445V301.357ZM196.445 336.179V358.179H218.445V336.179H196.445ZM161.624 336.179H139.624V358.179H161.624V336.179ZM196.445 336.179V314.179H174.445V336.179H196.445ZM231.266 336.179H253.266V314.179H231.266V336.179ZM231.266 371V393H253.266V371H231.266ZM196.445 371H174.445V393H196.445V371ZM161.624 336.179V314.179H139.624V336.179H161.624ZM196.445 336.179H218.445V314.179H196.445V336.179ZM196.445 371V393H218.445V371H196.445ZM161.624 371H139.624V393H161.624V371ZM126.802 336.179V314.179H104.802V336.179H126.802ZM161.624 336.179H183.624V314.179H161.624V336.179ZM161.624 371V393H183.624V371H161.624ZM126.802 371H104.802V393H126.802V371ZM126.802 301.357V279.357H104.802V301.357H126.802ZM161.624 301.357H183.624V279.357H161.624V301.357ZM161.624 336.179V358.179H183.624V336.179H161.624ZM126.802 336.179H104.802V358.179H126.802V336.179ZM91.9807 336.179V314.179H69.9807V336.179H91.9807ZM126.802 336.179H148.802V314.179H126.802V336.179ZM126.802 371V393H148.802V371H126.802ZM91.9807 371H69.9807V393H91.9807V371ZM57.1593 336.179V314.179H35.1593V336.179H57.1593ZM91.9807 336.179H113.981V314.179H91.9807V336.179ZM91.9807 371V393H113.981V371H91.9807ZM57.1593 371H35.1593V393H57.1593V371ZM57.1593 301.357V279.357H35.1593V301.357H57.1593ZM91.9807 301.357H113.981V279.357H91.9807V301.357ZM91.9807 336.179V358.179H113.981V336.179H91.9807ZM57.1593 336.179H35.1593V358.179H57.1593V336.179ZM91.9807 301.357V279.357H69.9807V301.357H91.9807ZM126.802 301.357H148.802V279.357H126.802V301.357ZM126.802 336.179V358.179H148.802V336.179H126.802ZM91.9807 336.179H69.9807V358.179H91.9807V336.179ZM91.9807 266.536V244.536H69.9807V266.536H91.9807ZM126.802 266.536H148.802V244.536H126.802V266.536ZM126.802 301.357V323.357H148.802V301.357H126.802ZM91.9807 301.357H69.9807V323.357H91.9807V301.357ZM57.1593 266.536V244.536H35.1593V266.536H57.1593ZM91.9807 266.536H113.981V244.536H91.9807V266.536ZM91.9807 301.357V323.357H113.981V301.357H91.9807ZM57.1593 301.357H35.1593V323.357H57.1593V301.357ZM22.3379 301.357V279.357H0.337891V301.357H22.3379ZM57.1593 301.357H79.1593V279.357H57.1593V301.357ZM57.1593 336.179V358.179H79.1593V336.179H57.1593ZM22.3379 336.179H0.337891V358.179H22.3379V336.179ZM22.3379 266.536V244.536H0.337891V266.536H22.3379ZM57.1593 266.536H79.1593V244.536H57.1593V266.536ZM57.1593 301.357V323.357H79.1593V301.357H57.1593ZM22.3379 301.357H0.337891V323.357H22.3379V301.357ZM22.3379 231.714V209.714H0.337891V231.714H22.3379ZM57.1593 231.714H79.1593V209.714H57.1593V231.714ZM57.1593 266.536V288.536H79.1593V266.536H57.1593ZM22.3379 266.536H0.337891V288.536H22.3379V266.536ZM22.3379 196.893V174.893H0.337891V196.893H22.3379ZM57.1593 196.893H79.1593V174.893H57.1593V196.893ZM57.1593 231.714V253.714H79.1593V231.714H57.1593ZM22.3379 231.714H0.337891V253.714H22.3379V231.714ZM22.3379 162.071V140.071H0.337891V162.071H22.3379ZM57.1593 162.071H79.1593V140.071H57.1593V162.071ZM57.1593 196.893V218.893H79.1593V196.893H57.1593ZM22.3379 196.893H0.337891V218.893H22.3379V196.893ZM22.3379 127.25V105.25H0.337891V127.25H22.3379ZM57.1593 127.25H79.1593V105.25H57.1593V127.25ZM57.1593 162.071V184.071H79.1593V162.071H57.1593ZM22.3379 162.071H0.337891V184.071H22.3379V162.071ZM22.3379 92.4286V70.4286H0.337891V92.4286H22.3379ZM57.1593 92.4286H79.1593V70.4286H57.1593V92.4286ZM57.1593 127.25V149.25H79.1593V127.25H57.1593ZM22.3379 127.25H0.337891V149.25H22.3379V127.25ZM57.1593 92.4286V70.4286H35.1593V92.4286H57.1593ZM91.9807 92.4286H113.981V70.4286H91.9807V92.4286ZM91.9807 127.25V149.25H113.981V127.25H91.9807ZM57.1593 127.25H35.1593V149.25H57.1593V127.25ZM22.3379 57.6071V35.6071H0.337891V57.6071H22.3379ZM57.1593 57.6071H79.1593V35.6071H57.1593V57.6071ZM57.1593 92.4286V114.429H79.1593V92.4286H57.1593ZM22.3379 92.4286H0.337891V114.429H22.3379V92.4286ZM91.9807 92.4286V70.4286H69.9807V92.4286H91.9807ZM126.802 92.4286H148.802V70.4286H126.802V92.4286ZM126.802 127.25V149.25H148.802V127.25H126.802ZM91.9807 127.25H69.9807V149.25H91.9807V127.25ZM57.1593 127.25V105.25H35.1593V127.25H57.1593ZM91.9807 127.25H113.981V105.25H91.9807V127.25ZM91.9807 162.071V184.071H113.981V162.071H91.9807ZM57.1593 162.071H35.1593V184.071H57.1593V162.071ZM57.1593 162.071V140.071H35.1593V162.071H57.1593ZM91.9807 162.071H113.981V140.071H91.9807V162.071ZM91.9807 196.893V218.893H113.981V196.893H91.9807ZM57.1593 196.893H35.1593V218.893H57.1593V196.893ZM57.1593 196.893V174.893H35.1593V196.893H57.1593ZM91.9807 196.893H113.981V174.893H91.9807V196.893ZM91.9807 231.714V253.714H113.981V231.714H91.9807ZM57.1593 231.714H35.1593V253.714H57.1593V231.714ZM57.1593 231.714V209.714H35.1593V231.714H57.1593ZM91.9807 231.714H113.981V209.714H91.9807V231.714ZM91.9807 266.536V288.536H113.981V266.536H91.9807ZM57.1593 266.536H35.1593V288.536H57.1593V266.536ZM91.9807 22.7857V44.7857H126.802V22.7857V0.785725H91.9807V22.7857ZM126.802 22.7857H104.802V57.6071H126.802H148.802V22.7857H126.802ZM126.802 57.6071V35.6071H91.9807V57.6071V79.6071H126.802V57.6071ZM91.9807 57.6071H113.981V22.7857H91.9807H69.9807V57.6071H91.9807ZM57.1593 22.7857V44.7857H91.9807V22.7857V0.785725H57.1593V22.7857ZM91.9807 22.7857H69.9807V57.6071H91.9807H113.981V22.7857H91.9807ZM91.9807 57.6071V35.6071H57.1593V57.6071V79.6071H91.9807V57.6071ZM57.1593 57.6071H79.1593V22.7857H57.1593H35.1593V57.6071H57.1593ZM57.1593 57.6071V79.6071H91.9807V57.6071V35.6071H57.1593V57.6071ZM91.9807 57.6071H69.9807V92.4286H91.9807H113.981V57.6071H91.9807ZM91.9807 92.4286V70.4286H57.1593V92.4286V114.429H91.9807V92.4286ZM57.1593 92.4286H79.1593V57.6071H57.1593H35.1593V92.4286H57.1593ZM91.9807 57.6071V79.6071H126.802V57.6071V35.6071H91.9807V57.6071ZM126.802 57.6071H104.802V92.4286H126.802H148.802V57.6071H126.802ZM126.802 92.4286V70.4286H91.9807V92.4286V114.429H126.802V92.4286ZM91.9807 92.4286H113.981V57.6071H91.9807H69.9807V92.4286H91.9807ZM126.802 57.6071V79.6071H161.624V57.6071V35.6071H126.802V57.6071ZM161.624 57.6071H139.624V92.4286H161.624H183.624V57.6071H161.624ZM161.624 92.4286V70.4286H126.802V92.4286V114.429H161.624V92.4286ZM126.802 92.4286H148.802V57.6071H126.802H104.802V92.4286H126.802ZM126.802 22.7857V44.7857H161.624V22.7857V0.785725H126.802V22.7857ZM161.624 22.7857H139.624V57.6071H161.624H183.624V22.7857H161.624ZM161.624 57.6071V35.6071H126.802V57.6071V79.6071H161.624V57.6071ZM126.802 57.6071H148.802V22.7857H126.802H104.802V57.6071H126.802ZM161.624 22.7857V44.7857H196.445V22.7857V0.785725H161.624V22.7857ZM196.445 22.7857H174.445V57.6071H196.445H218.445V22.7857H196.445ZM196.445 57.6071V35.6071H161.624V57.6071V79.6071H196.445V57.6071ZM161.624 57.6071H183.624V22.7857H161.624H139.624V57.6071H161.624ZM196.445 22.7857V44.7857H231.266V22.7857V0.785725H196.445V22.7857ZM231.266 22.7857H209.266V57.6071H231.266H253.266V22.7857H231.266ZM231.266 57.6071V35.6071H196.445V57.6071V79.6071H231.266V57.6071ZM196.445 57.6071H218.445V22.7857H196.445H174.445V57.6071H196.445ZM196.445 57.6071V79.6071H231.266V57.6071V35.6071H196.445V57.6071ZM231.266 57.6071H209.266V92.4286H231.266H253.266V57.6071H231.266ZM231.266 92.4286V70.4286H196.445V92.4286V114.429H231.266V92.4286ZM196.445 92.4286H218.445V57.6071H196.445H174.445V92.4286H196.445ZM161.624 57.6071V79.6071H196.445V57.6071V35.6071H161.624V57.6071ZM196.445 57.6071H174.445V92.4286H196.445H218.445V57.6071H196.445ZM196.445 92.4286V70.4286H161.624V92.4286V114.429H196.445V92.4286ZM161.624 92.4286H183.624V57.6071H161.624H139.624V92.4286H161.624ZM196.445 92.4286V114.429H231.266V92.4286V70.4286H196.445V92.4286ZM231.266 92.4286H209.266V127.25H231.266H253.266V92.4286H231.266ZM231.266 127.25V105.25H196.445V127.25V149.25H231.266V127.25ZM196.445 127.25H218.445V92.4286H196.445H174.445V127.25H196.445ZM231.266 57.6071V79.6071H266.088V57.6071V35.6071H231.266V57.6071ZM266.088 57.6071H244.088V92.4286H266.088H288.088V57.6071H266.088ZM266.088 92.4286V70.4286H231.266V92.4286V114.429H266.088V92.4286ZM231.266 92.4286H253.266V57.6071H231.266H209.266V92.4286H231.266ZM231.266 92.4286V114.429H266.088V92.4286V70.4286H231.266V92.4286ZM266.088 92.4286H244.088V127.25H266.088H288.088V92.4286H266.088ZM266.088 127.25V105.25H231.266V127.25V149.25H266.088V127.25ZM231.266 127.25H253.266V92.4286H231.266H209.266V127.25H231.266ZM231.266 266.536V288.536H266.088V266.536V244.536H231.266V266.536ZM266.088 266.536H244.088V301.357H266.088H288.088V266.536H266.088ZM266.088 301.357V279.357H231.266V301.357V323.357H266.088V301.357ZM231.266 301.357H253.266V266.536H231.266H209.266V301.357H231.266ZM231.266 301.357V323.357H266.088V301.357V279.357H231.266V301.357ZM266.088 301.357H244.088V336.179H266.088H288.088V301.357H266.088ZM266.088 336.179V314.179H231.266V336.179V358.179H266.088V336.179ZM231.266 336.179H253.266V301.357H231.266H209.266V336.179H231.266ZM196.445 301.357V323.357H231.266V301.357V279.357H196.445V301.357ZM231.266 301.357H209.266V336.179H231.266H253.266V301.357H231.266ZM231.266 336.179V314.179H196.445V336.179V358.179H231.266V336.179ZM196.445 336.179H218.445V301.357H196.445H174.445V336.179H196.445ZM196.445 266.536V288.536H231.266V266.536V244.536H196.445V266.536ZM231.266 266.536H209.266V301.357H231.266H253.266V266.536H231.266ZM231.266 301.357V279.357H196.445V301.357V323.357H231.266V301.357ZM196.445 301.357H218.445V266.536H196.445H174.445V301.357H196.445ZM161.624 301.357V323.357H196.445V301.357V279.357H161.624V301.357ZM196.445 301.357H174.445V336.179H196.445H218.445V301.357H196.445ZM196.445 336.179V314.179H161.624V336.179V358.179H196.445V336.179ZM161.624 336.179H183.624V301.357H161.624H139.624V336.179H161.624ZM196.445 336.179V358.179H231.266V336.179V314.179H196.445V336.179ZM231.266 336.179H209.266V371H231.266H253.266V336.179H231.266ZM231.266 371V349H196.445V371V393H231.266V371ZM196.445 371H218.445V336.179H196.445H174.445V371H196.445ZM161.624 336.179V358.179H196.445V336.179V314.179H161.624V336.179ZM196.445 336.179H174.445V371H196.445H218.445V336.179H196.445ZM196.445 371V349H161.624V371V393H196.445V371ZM161.624 371H183.624V336.179H161.624H139.624V371H161.624ZM126.802 336.179V358.179H161.624V336.179V314.179H126.802V336.179ZM161.624 336.179H139.624V371H161.624H183.624V336.179H161.624ZM161.624 371V349H126.802V371V393H161.624V371ZM126.802 371H148.802V336.179H126.802H104.802V371H126.802ZM126.802 301.357V323.357H161.624V301.357V279.357H126.802V301.357ZM161.624 301.357H139.624V336.179H161.624H183.624V301.357H161.624ZM161.624 336.179V314.179H126.802V336.179V358.179H161.624V336.179ZM126.802 336.179H148.802V301.357H126.802H104.802V336.179H126.802ZM91.9807 336.179V358.179H126.802V336.179V314.179H91.9807V336.179ZM126.802 336.179H104.802V371H126.802H148.802V336.179H126.802ZM126.802 371V349H91.9807V371V393H126.802V371ZM91.9807 371H113.981V336.179H91.9807H69.9807V371H91.9807ZM57.1593 336.179V358.179H91.9807V336.179V314.179H57.1593V336.179ZM91.9807 336.179H69.9807V371H91.9807H113.981V336.179H91.9807ZM91.9807 371V349H57.1593V371V393H91.9807V371ZM57.1593 371H79.1593V336.179H57.1593H35.1593V371H57.1593ZM57.1593 301.357V323.357H91.9807V301.357V279.357H57.1593V301.357ZM91.9807 301.357H69.9807V336.179H91.9807H113.981V301.357H91.9807ZM91.9807 336.179V314.179H57.1593V336.179V358.179H91.9807V336.179ZM57.1593 336.179H79.1593V301.357H57.1593H35.1593V336.179H57.1593ZM91.9807 301.357V323.357H126.802V301.357V279.357H91.9807V301.357ZM126.802 301.357H104.802V336.179H126.802H148.802V301.357H126.802ZM126.802 336.179V314.179H91.9807V336.179V358.179H126.802V336.179ZM91.9807 336.179H113.981V301.357H91.9807H69.9807V336.179H91.9807ZM91.9807 266.536V288.536H126.802V266.536V244.536H91.9807V266.536ZM126.802 266.536H104.802V301.357H126.802H148.802V266.536H126.802ZM126.802 301.357V279.357H91.9807V301.357V323.357H126.802V301.357ZM91.9807 301.357H113.981V266.536H91.9807H69.9807V301.357H91.9807ZM57.1593 266.536V288.536H91.9807V266.536V244.536H57.1593V266.536ZM91.9807 266.536H69.9807V301.357H91.9807H113.981V266.536H91.9807ZM91.9807 301.357V279.357H57.1593V301.357V323.357H91.9807V301.357ZM57.1593 301.357H79.1593V266.536H57.1593H35.1593V301.357H57.1593ZM22.3379 301.357V323.357H57.1593V301.357V279.357H22.3379V301.357ZM57.1593 301.357H35.1593V336.179H57.1593H79.1593V301.357H57.1593ZM57.1593 336.179V314.179H22.3379V336.179V358.179H57.1593V336.179ZM22.3379 336.179H44.3379V301.357H22.3379H0.337891V336.179H22.3379ZM22.3379 266.536V288.536H57.1593V266.536V244.536H22.3379V266.536ZM57.1593 266.536H35.1593V301.357H57.1593H79.1593V266.536H57.1593ZM57.1593 301.357V279.357H22.3379V301.357V323.357H57.1593V301.357ZM22.3379 301.357H44.3379V266.536H22.3379H0.337891V301.357H22.3379ZM22.3379 231.714V253.714H57.1593V231.714V209.714H22.3379V231.714ZM57.1593 231.714H35.1593V266.536H57.1593H79.1593V231.714H57.1593ZM57.1593 266.536V244.536H22.3379V266.536V288.536H57.1593V266.536ZM22.3379 266.536H44.3379V231.714H22.3379H0.337891V266.536H22.3379ZM22.3379 196.893V218.893H57.1593V196.893V174.893H22.3379V196.893ZM57.1593 196.893H35.1593V231.714H57.1593H79.1593V196.893H57.1593ZM57.1593 231.714V209.714H22.3379V231.714V253.714H57.1593V231.714ZM22.3379 231.714H44.3379V196.893H22.3379H0.337891V231.714H22.3379ZM22.3379 162.071V184.071H57.1593V162.071V140.071H22.3379V162.071ZM57.1593 162.071H35.1593V196.893H57.1593H79.1593V162.071H57.1593ZM57.1593 196.893V174.893H22.3379V196.893V218.893H57.1593V196.893ZM22.3379 196.893H44.3379V162.071H22.3379H0.337891V196.893H22.3379ZM22.3379 127.25V149.25H57.1593V127.25V105.25H22.3379V127.25ZM57.1593 127.25H35.1593V162.071H57.1593H79.1593V127.25H57.1593ZM57.1593 162.071V140.071H22.3379V162.071V184.071H57.1593V162.071ZM22.3379 162.071H44.3379V127.25H22.3379H0.337891V162.071H22.3379ZM22.3379 92.4286V114.429H57.1593V92.4286V70.4286H22.3379V92.4286ZM57.1593 92.4286H35.1593V127.25H57.1593H79.1593V92.4286H57.1593ZM57.1593 127.25V105.25H22.3379V127.25V149.25H57.1593V127.25ZM22.3379 127.25H44.3379V92.4286H22.3379H0.337891V127.25H22.3379ZM57.1593 92.4286V114.429H91.9807V92.4286V70.4286H57.1593V92.4286ZM91.9807 92.4286H69.9807V127.25H91.9807H113.981V92.4286H91.9807ZM91.9807 127.25V105.25H57.1593V127.25V149.25H91.9807V127.25ZM57.1593 127.25H79.1593V92.4286H57.1593H35.1593V127.25H57.1593ZM22.3379 57.6071V79.6071H57.1593V57.6071V35.6071H22.3379V57.6071ZM57.1593 57.6071H35.1593V92.4286H57.1593H79.1593V57.6071H57.1593ZM57.1593 92.4286V70.4286H22.3379V92.4286V114.429H57.1593V92.4286ZM22.3379 92.4286H44.3379V57.6071H22.3379H0.337891V92.4286H22.3379ZM91.9807 92.4286V114.429H126.802V92.4286V70.4286H91.9807V92.4286ZM126.802 92.4286H104.802V127.25H126.802H148.802V92.4286H126.802ZM126.802 127.25V105.25H91.9807V127.25V149.25H126.802V127.25ZM91.9807 127.25H113.981V92.4286H91.9807H69.9807V127.25H91.9807ZM57.1593 127.25V149.25H91.9807V127.25V105.25H57.1593V127.25ZM91.9807 127.25H69.9807V162.071H91.9807H113.981V127.25H91.9807ZM91.9807 162.071V140.071H57.1593V162.071V184.071H91.9807V162.071ZM57.1593 162.071H79.1593V127.25H57.1593H35.1593V162.071H57.1593ZM57.1593 162.071V184.071H91.9807V162.071V140.071H57.1593V162.071ZM91.9807 162.071H69.9807V196.893H91.9807H113.981V162.071H91.9807ZM91.9807 196.893V174.893H57.1593V196.893V218.893H91.9807V196.893ZM57.1593 196.893H79.1593V162.071H57.1593H35.1593V196.893H57.1593ZM57.1593 196.893V218.893H91.9807V196.893V174.893H57.1593V196.893ZM91.9807 196.893H69.9807V231.714H91.9807H113.981V196.893H91.9807ZM91.9807 231.714V209.714H57.1593V231.714V253.714H91.9807V231.714ZM57.1593 231.714H79.1593V196.893H57.1593H35.1593V231.714H57.1593ZM57.1593 231.714V253.714H91.9807V231.714V209.714H57.1593V231.714ZM91.9807 231.714H69.9807V266.536H91.9807H113.981V231.714H91.9807ZM91.9807 266.536V244.536H57.1593V266.536V288.536H91.9807V266.536ZM57.1593 266.536H79.1593V231.714H57.1593H35.1593V266.536H57.1593ZM335.821 22.7857V0.785725H313.821V22.7857H335.821ZM370.643 22.7857H392.643V0.785725H370.643V22.7857ZM370.643 57.6071V79.6071H392.643V57.6071H370.643ZM335.821 57.6071H313.821V79.6071H335.821V57.6071ZM335.821 57.6071V35.6071H313.821V57.6071H335.821ZM370.643 57.6071H392.643V35.6071H370.643V57.6071ZM370.643 92.4286V114.429H392.643V92.4286H370.643ZM335.821 92.4286H313.821V114.429H335.821V92.4286ZM335.821 92.4286V70.4286H313.821V92.4286H335.821ZM370.643 92.4286H392.643V70.4286H370.643V92.4286ZM370.643 127.25V149.25H392.643V127.25H370.643ZM335.821 127.25H313.821V149.25H335.821V127.25ZM370.643 92.4286V70.4286H348.643V92.4286H370.643ZM405.464 92.4286H427.464V70.4286H405.464V92.4286ZM405.464 127.25V149.25H427.464V127.25H405.464ZM370.643 127.25H348.643V149.25H370.643V127.25ZM370.643 127.25V105.25H348.643V127.25H370.643ZM405.464 127.25H427.464V105.25H405.464V127.25ZM405.464 162.071V184.071H427.464V162.071H405.464ZM370.643 162.071H348.643V184.071H370.643V162.071ZM405.464 127.25V105.25H383.464V127.25H405.464ZM440.286 127.25H462.286V105.25H440.286V127.25ZM440.286 162.071V184.071H462.286V162.071H440.286ZM405.464 162.071H383.464V184.071H405.464V162.071ZM440.286 127.25V105.25H418.286V127.25H440.286ZM475.107 127.25H497.107V105.25H475.107V127.25ZM475.107 162.071V184.071H497.107V162.071H475.107ZM440.286 162.071H418.286V184.071H440.286V162.071ZM440.286 92.4286V70.4286H418.286V92.4286H440.286ZM475.107 92.4286H497.107V70.4286H475.107V92.4286ZM475.107 127.25V149.25H497.107V127.25H475.107ZM440.286 127.25H418.286V149.25H440.286V127.25ZM475.107 92.4286V70.4286H453.107V92.4286H475.107ZM509.929 92.4286H531.929V70.4286H509.929V92.4286ZM509.929 127.25V149.25H531.929V127.25H509.929ZM475.107 127.25H453.107V149.25H475.107V127.25ZM509.929 92.4286V70.4286H487.929V92.4286H509.929ZM544.75 92.4286H566.75V70.4286H544.75V92.4286ZM544.75 127.25V149.25H566.75V127.25H544.75ZM509.929 127.25H487.929V149.25H509.929V127.25ZM509.929 57.6071V35.6071H487.929V57.6071H509.929ZM544.75 57.6071H566.75V35.6071H544.75V57.6071ZM544.75 92.4286V114.429H566.75V92.4286H544.75ZM509.929 92.4286H487.929V114.429H509.929V92.4286ZM509.929 22.7857V0.785725H487.929V22.7857H509.929ZM544.75 22.7857H566.75V0.785725H544.75V22.7857ZM544.75 57.6071V79.6071H566.75V57.6071H544.75ZM509.929 57.6071H487.929V79.6071H509.929V57.6071ZM475.107 22.7857V0.785725H453.107V22.7857H475.107ZM509.929 22.7857H531.929V0.785725H509.929V22.7857ZM509.929 57.6071V79.6071H531.929V57.6071H509.929ZM475.107 57.6071H453.107V79.6071H475.107V57.6071ZM475.107 57.6071V35.6071H453.107V57.6071H475.107ZM509.929 57.6071H531.929V35.6071H509.929V57.6071ZM509.929 92.4286V114.429H531.929V92.4286H509.929ZM475.107 92.4286H453.107V114.429H475.107V92.4286ZM475.107 127.25V105.25H453.107V127.25H475.107ZM509.929 127.25H531.929V105.25H509.929V127.25ZM509.929 162.071V184.071H531.929V162.071H509.929ZM475.107 162.071H453.107V184.071H475.107V162.071ZM335.821 127.25V105.25H313.821V127.25H335.821ZM370.643 127.25H392.643V105.25H370.643V127.25ZM370.643 162.071V184.071H392.643V162.071H370.643ZM335.821 162.071H313.821V184.071H335.821V162.071ZM301 92.4286V70.4286H279V92.4286H301ZM335.821 92.4286H357.821V70.4286H335.821V92.4286ZM335.821 127.25V149.25H357.821V127.25H335.821ZM301 127.25H279V149.25H301V127.25ZM301 57.6071V35.6071H279V57.6071H301ZM335.821 57.6071H357.821V35.6071H335.821V57.6071ZM335.821 92.4286V114.429H357.821V92.4286H335.821ZM301 92.4286H279V114.429H301V92.4286ZM301 22.7857V0.785725H279V22.7857H301ZM335.821 22.7857H357.821V0.785725H335.821V22.7857ZM335.821 57.6071V79.6071H357.821V57.6071H335.821ZM301 57.6071H279V79.6071H301V57.6071ZM370.643 162.071V140.071H348.643V162.071H370.643ZM405.464 162.071H427.464V140.071H405.464V162.071ZM405.464 196.893V218.893H427.464V196.893H405.464ZM370.643 196.893H348.643V218.893H370.643V196.893ZM405.464 162.071V140.071H383.464V162.071H405.464ZM440.286 162.071H462.286V140.071H440.286V162.071ZM440.286 196.893V218.893H462.286V196.893H440.286ZM405.464 196.893H383.464V218.893H405.464V196.893ZM440.286 162.071V140.071H418.286V162.071H440.286ZM475.107 162.071H497.107V140.071H475.107V162.071ZM475.107 196.893V218.893H497.107V196.893H475.107ZM440.286 196.893H418.286V218.893H440.286V196.893ZM440.286 196.893V174.893H418.286V196.893H440.286ZM475.107 196.893H497.107V174.893H475.107V196.893ZM475.107 231.714V253.714H497.107V231.714H475.107ZM440.286 231.714H418.286V253.714H440.286V231.714ZM475.107 196.893V174.893H453.107V196.893H475.107ZM509.929 196.893H531.929V174.893H509.929V196.893ZM509.929 231.714V253.714H531.929V231.714H509.929ZM475.107 231.714H453.107V253.714H475.107V231.714ZM475.107 231.714V209.714H453.107V231.714H475.107ZM509.929 231.714H531.929V209.714H509.929V231.714ZM509.929 266.536V288.536H531.929V266.536H509.929ZM475.107 266.536H453.107V288.536H475.107V266.536ZM440.286 231.714V209.714H418.286V231.714H440.286ZM475.107 231.714H497.107V209.714H475.107V231.714ZM475.107 266.536V288.536H497.107V266.536H475.107ZM440.286 266.536H418.286V288.536H440.286V266.536ZM509.929 336.179V314.179H487.929V336.179H509.929ZM544.75 336.179H566.75V314.179H544.75V336.179ZM544.75 371V393H566.75V371H544.75ZM509.929 371H487.929V393H509.929V371ZM509.929 301.357V279.357H487.929V301.357H509.929ZM544.75 301.357H566.75V279.357H544.75V301.357ZM544.75 336.179V358.179H566.75V336.179H544.75ZM509.929 336.179H487.929V358.179H509.929V336.179ZM509.929 266.536V244.536H487.929V266.536H509.929ZM544.75 266.536H566.75V244.536H544.75V266.536ZM544.75 301.357V323.357H566.75V301.357H544.75ZM509.929 301.357H487.929V323.357H509.929V301.357ZM509.929 231.714V209.714H487.929V231.714H509.929ZM544.75 231.714H566.75V209.714H544.75V231.714ZM544.75 266.536V288.536H566.75V266.536H544.75ZM509.929 266.536H487.929V288.536H509.929V266.536ZM475.107 266.536V244.536H453.107V266.536H475.107ZM509.929 266.536H531.929V244.536H509.929V266.536ZM509.929 301.357V323.357H531.929V301.357H509.929ZM475.107 301.357H453.107V323.357H475.107V301.357ZM475.107 301.357V279.357H453.107V301.357H475.107ZM509.929 301.357H531.929V279.357H509.929V301.357ZM509.929 336.179V358.179H531.929V336.179H509.929ZM475.107 336.179H453.107V358.179H475.107V336.179ZM475.107 336.179V314.179H453.107V336.179H475.107ZM509.929 336.179H531.929V314.179H509.929V336.179ZM509.929 371V393H531.929V371H509.929ZM475.107 371H453.107V393H475.107V371ZM301 336.179V314.179H279V336.179H301ZM335.821 336.179H357.821V314.179H335.821V336.179ZM335.821 371V393H357.821V371H335.821ZM301 371H279V393H301V371ZM335.821 336.179V314.179H313.821V336.179H335.821ZM370.643 336.179H392.643V314.179H370.643V336.179ZM370.643 371V393H392.643V371H370.643ZM335.821 371H313.821V393H335.821V371ZM335.821 301.357V279.357H313.821V301.357H335.821ZM370.643 301.357H392.643V279.357H370.643V301.357ZM370.643 336.179V358.179H392.643V336.179H370.643ZM335.821 336.179H313.821V358.179H335.821V336.179ZM335.821 266.536V244.536H313.821V266.536H335.821ZM370.643 266.536H392.643V244.536H370.643V266.536ZM370.643 301.357V323.357H392.643V301.357H370.643ZM335.821 301.357H313.821V323.357H335.821V301.357ZM301 266.536V244.536H279V266.536H301ZM335.821 266.536H357.821V244.536H335.821V266.536ZM335.821 301.357V323.357H357.821V301.357H335.821ZM301 301.357H279V323.357H301V301.357ZM301 231.714V209.714H279V231.714H301ZM335.821 231.714H357.821V209.714H335.821V231.714ZM335.821 266.536V288.536H357.821V266.536H335.821ZM301 266.536H279V288.536H301V266.536ZM301 301.357V279.357H279V301.357H301ZM335.821 301.357H357.821V279.357H335.821V301.357ZM335.821 336.179V358.179H357.821V336.179H335.821ZM301 336.179H279V358.179H301V336.179ZM335.821 231.714V209.714H313.821V231.714H335.821ZM370.643 231.714H392.643V209.714H370.643V231.714ZM370.643 266.536V288.536H392.643V266.536H370.643ZM335.821 266.536H313.821V288.536H335.821V266.536ZM370.643 231.714V209.714H348.643V231.714H370.643ZM405.464 231.714H427.464V209.714H405.464V231.714ZM405.464 266.536V288.536H427.464V266.536H405.464ZM370.643 266.536H348.643V288.536H370.643V266.536ZM370.643 196.893V174.893H348.643V196.893H370.643ZM405.464 196.893H427.464V174.893H405.464V196.893ZM405.464 231.714V253.714H427.464V231.714H405.464ZM370.643 231.714H348.643V253.714H370.643V231.714ZM335.821 196.893V174.893H313.821V196.893H335.821ZM370.643 196.893H392.643V174.893H370.643V196.893ZM370.643 231.714V253.714H392.643V231.714H370.643ZM335.821 231.714H313.821V253.714H335.821V231.714ZM405.464 196.893V174.893H383.464V196.893H405.464ZM440.286 196.893H462.286V174.893H440.286V196.893ZM440.286 231.714V253.714H462.286V231.714H440.286ZM405.464 231.714H383.464V253.714H405.464V231.714ZM335.821 22.7857V44.7857H370.643V22.7857V0.785725H335.821V22.7857ZM370.643 22.7857H348.643V57.6071H370.643H392.643V22.7857H370.643ZM370.643 57.6071V35.6071H335.821V57.6071V79.6071H370.643V57.6071ZM335.821 57.6071H357.821V22.7857H335.821H313.821V57.6071H335.821ZM335.821 57.6071V79.6071H370.643V57.6071V35.6071H335.821V57.6071ZM370.643 57.6071H348.643V92.4286H370.643H392.643V57.6071H370.643ZM370.643 92.4286V70.4286H335.821V92.4286V114.429H370.643V92.4286ZM335.821 92.4286H357.821V57.6071H335.821H313.821V92.4286H335.821ZM335.821 92.4286V114.429H370.643V92.4286V70.4286H335.821V92.4286ZM370.643 92.4286H348.643V127.25H370.643H392.643V92.4286H370.643ZM370.643 127.25V105.25H335.821V127.25V149.25H370.643V127.25ZM335.821 127.25H357.821V92.4286H335.821H313.821V127.25H335.821ZM370.643 92.4286V114.429H405.464V92.4286V70.4286H370.643V92.4286ZM405.464 92.4286H383.464V127.25H405.464H427.464V92.4286H405.464ZM405.464 127.25V105.25H370.643V127.25V149.25H405.464V127.25ZM370.643 127.25H392.643V92.4286H370.643H348.643V127.25H370.643ZM370.643 127.25V149.25H405.464V127.25V105.25H370.643V127.25ZM405.464 127.25H383.464V162.071H405.464H427.464V127.25H405.464ZM405.464 162.071V140.071H370.643V162.071V184.071H405.464V162.071ZM370.643 162.071H392.643V127.25H370.643H348.643V162.071H370.643ZM405.464 127.25V149.25H440.286V127.25V105.25H405.464V127.25ZM440.286 127.25H418.286V162.071H440.286H462.286V127.25H440.286ZM440.286 162.071V140.071H405.464V162.071V184.071H440.286V162.071ZM405.464 162.071H427.464V127.25H405.464H383.464V162.071H405.464ZM440.286 127.25V149.25H475.107V127.25V105.25H440.286V127.25ZM475.107 127.25H453.107V162.071H475.107H497.107V127.25H475.107ZM475.107 162.071V140.071H440.286V162.071V184.071H475.107V162.071ZM440.286 162.071H462.286V127.25H440.286H418.286V162.071H440.286ZM440.286 92.4286V114.429H475.107V92.4286V70.4286H440.286V92.4286ZM475.107 92.4286H453.107V127.25H475.107H497.107V92.4286H475.107ZM475.107 127.25V105.25H440.286V127.25V149.25H475.107V127.25ZM440.286 127.25H462.286V92.4286H440.286H418.286V127.25H440.286ZM475.107 92.4286V114.429H509.929V92.4286V70.4286H475.107V92.4286ZM509.929 92.4286H487.929V127.25H509.929H531.929V92.4286H509.929ZM509.929 127.25V105.25H475.107V127.25V149.25H509.929V127.25ZM475.107 127.25H497.107V92.4286H475.107H453.107V127.25H475.107ZM509.929 92.4286V114.429H544.75V92.4286V70.4286H509.929V92.4286ZM544.75 92.4286H522.75V127.25H544.75H566.75V92.4286H544.75ZM544.75 127.25V105.25H509.929V127.25V149.25H544.75V127.25ZM509.929 127.25H531.929V92.4286H509.929H487.929V127.25H509.929ZM509.929 57.6071V79.6071H544.75V57.6071V35.6071H509.929V57.6071ZM544.75 57.6071H522.75V92.4286H544.75H566.75V57.6071H544.75ZM544.75 92.4286V70.4286H509.929V92.4286V114.429H544.75V92.4286ZM509.929 92.4286H531.929V57.6071H509.929H487.929V92.4286H509.929ZM509.929 22.7857V44.7857H544.75V22.7857V0.785725H509.929V22.7857ZM544.75 22.7857H522.75V57.6071H544.75H566.75V22.7857H544.75ZM544.75 57.6071V35.6071H509.929V57.6071V79.6071H544.75V57.6071ZM509.929 57.6071H531.929V22.7857H509.929H487.929V57.6071H509.929ZM475.107 22.7857V44.7857H509.929V22.7857V0.785725H475.107V22.7857ZM509.929 22.7857H487.929V57.6071H509.929H531.929V22.7857H509.929ZM509.929 57.6071V35.6071H475.107V57.6071V79.6071H509.929V57.6071ZM475.107 57.6071H497.107V22.7857H475.107H453.107V57.6071H475.107ZM475.107 57.6071V79.6071H509.929V57.6071V35.6071H475.107V57.6071ZM509.929 57.6071H487.929V92.4286H509.929H531.929V57.6071H509.929ZM509.929 92.4286V70.4286H475.107V92.4286V114.429H509.929V92.4286ZM475.107 92.4286H497.107V57.6071H475.107H453.107V92.4286H475.107ZM475.107 127.25V149.25H509.929V127.25V105.25H475.107V127.25ZM509.929 127.25H487.929V162.071H509.929H531.929V127.25H509.929ZM509.929 162.071V140.071H475.107V162.071V184.071H509.929V162.071ZM475.107 162.071H497.107V127.25H475.107H453.107V162.071H475.107ZM335.821 127.25V149.25H370.643V127.25V105.25H335.821V127.25ZM370.643 127.25H348.643V162.071H370.643H392.643V127.25H370.643ZM370.643 162.071V140.071H335.821V162.071V184.071H370.643V162.071ZM335.821 162.071H357.821V127.25H335.821H313.821V162.071H335.821ZM301 92.4286V114.429H335.821V92.4286V70.4286H301V92.4286ZM335.821 92.4286H313.821V127.25H335.821H357.821V92.4286H335.821ZM335.821 127.25V105.25H301V127.25V149.25H335.821V127.25ZM301 127.25H323V92.4286H301H279V127.25H301ZM301 57.6071V79.6071H335.821V57.6071V35.6071H301V57.6071ZM335.821 57.6071H313.821V92.4286H335.821H357.821V57.6071H335.821ZM335.821 92.4286V70.4286H301V92.4286V114.429H335.821V92.4286ZM301 92.4286H323V57.6071H301H279V92.4286H301ZM301 22.7857V44.7857H335.821V22.7857V0.785725H301V22.7857ZM335.821 22.7857H313.821V57.6071H335.821H357.821V22.7857H335.821ZM335.821 57.6071V35.6071H301V57.6071V79.6071H335.821V57.6071ZM301 57.6071H323V22.7857H301H279V57.6071H301ZM370.643 162.071V184.071H405.464V162.071V140.071H370.643V162.071ZM405.464 162.071H383.464V196.893H405.464H427.464V162.071H405.464ZM405.464 196.893V174.893H370.643V196.893V218.893H405.464V196.893ZM370.643 196.893H392.643V162.071H370.643H348.643V196.893H370.643ZM405.464 162.071V184.071H440.286V162.071V140.071H405.464V162.071ZM440.286 162.071H418.286V196.893H440.286H462.286V162.071H440.286ZM440.286 196.893V174.893H405.464V196.893V218.893H440.286V196.893ZM405.464 196.893H427.464V162.071H405.464H383.464V196.893H405.464ZM440.286 162.071V184.071H475.107V162.071V140.071H440.286V162.071ZM475.107 162.071H453.107V196.893H475.107H497.107V162.071H475.107ZM475.107 196.893V174.893H440.286V196.893V218.893H475.107V196.893ZM440.286 196.893H462.286V162.071H440.286H418.286V196.893H440.286ZM440.286 196.893V218.893H475.107V196.893V174.893H440.286V196.893ZM475.107 196.893H453.107V231.714H475.107H497.107V196.893H475.107ZM475.107 231.714V209.714H440.286V231.714V253.714H475.107V231.714ZM440.286 231.714H462.286V196.893H440.286H418.286V231.714H440.286ZM475.107 196.893V218.893H509.929V196.893V174.893H475.107V196.893ZM509.929 196.893H487.929V231.714H509.929H531.929V196.893H509.929ZM509.929 231.714V209.714H475.107V231.714V253.714H509.929V231.714ZM475.107 231.714H497.107V196.893H475.107H453.107V231.714H475.107ZM475.107 231.714V253.714H509.929V231.714V209.714H475.107V231.714ZM509.929 231.714H487.929V266.536H509.929H531.929V231.714H509.929ZM509.929 266.536V244.536H475.107V266.536V288.536H509.929V266.536ZM475.107 266.536H497.107V231.714H475.107H453.107V266.536H475.107ZM440.286 231.714V253.714H475.107V231.714V209.714H440.286V231.714ZM475.107 231.714H453.107V266.536H475.107H497.107V231.714H475.107ZM475.107 266.536V244.536H440.286V266.536V288.536H475.107V266.536ZM440.286 266.536H462.286V231.714H440.286H418.286V266.536H440.286ZM509.929 336.179V358.179H544.75V336.179V314.179H509.929V336.179ZM544.75 336.179H522.75V371H544.75H566.75V336.179H544.75ZM544.75 371V349H509.929V371V393H544.75V371ZM509.929 371H531.929V336.179H509.929H487.929V371H509.929ZM509.929 301.357V323.357H544.75V301.357V279.357H509.929V301.357ZM544.75 301.357H522.75V336.179H544.75H566.75V301.357H544.75ZM544.75 336.179V314.179H509.929V336.179V358.179H544.75V336.179ZM509.929 336.179H531.929V301.357H509.929H487.929V336.179H509.929ZM509.929 266.536V288.536H544.75V266.536V244.536H509.929V266.536ZM544.75 266.536H522.75V301.357H544.75H566.75V266.536H544.75ZM544.75 301.357V279.357H509.929V301.357V323.357H544.75V301.357ZM509.929 301.357H531.929V266.536H509.929H487.929V301.357H509.929ZM509.929 231.714V253.714H544.75V231.714V209.714H509.929V231.714ZM544.75 231.714H522.75V266.536H544.75H566.75V231.714H544.75ZM544.75 266.536V244.536H509.929V266.536V288.536H544.75V266.536ZM509.929 266.536H531.929V231.714H509.929H487.929V266.536H509.929ZM475.107 266.536V288.536H509.929V266.536V244.536H475.107V266.536ZM509.929 266.536H487.929V301.357H509.929H531.929V266.536H509.929ZM509.929 301.357V279.357H475.107V301.357V323.357H509.929V301.357ZM475.107 301.357H497.107V266.536H475.107H453.107V301.357H475.107ZM475.107 301.357V323.357H509.929V301.357V279.357H475.107V301.357ZM509.929 301.357H487.929V336.179H509.929H531.929V301.357H509.929ZM509.929 336.179V314.179H475.107V336.179V358.179H509.929V336.179ZM475.107 336.179H497.107V301.357H475.107H453.107V336.179H475.107ZM475.107 336.179V358.179H509.929V336.179V314.179H475.107V336.179ZM509.929 336.179H487.929V371H509.929H531.929V336.179H509.929ZM509.929 371V349H475.107V371V393H509.929V371ZM475.107 371H497.107V336.179H475.107H453.107V371H475.107ZM301 336.179V358.179H335.821V336.179V314.179H301V336.179ZM335.821 336.179H313.821V371H335.821H357.821V336.179H335.821ZM335.821 371V349H301V371V393H335.821V371ZM301 371H323V336.179H301H279V371H301ZM335.821 336.179V358.179H370.643V336.179V314.179H335.821V336.179ZM370.643 336.179H348.643V371H370.643H392.643V336.179H370.643ZM370.643 371V349H335.821V371V393H370.643V371ZM335.821 371H357.821V336.179H335.821H313.821V371H335.821ZM335.821 301.357V323.357H370.643V301.357V279.357H335.821V301.357ZM370.643 301.357H348.643V336.179H370.643H392.643V301.357H370.643ZM370.643 336.179V314.179H335.821V336.179V358.179H370.643V336.179ZM335.821 336.179H357.821V301.357H335.821H313.821V336.179H335.821ZM335.821 266.536V288.536H370.643V266.536V244.536H335.821V266.536ZM370.643 266.536H348.643V301.357H370.643H392.643V266.536H370.643ZM370.643 301.357V279.357H335.821V301.357V323.357H370.643V301.357ZM335.821 301.357H357.821V266.536H335.821H313.821V301.357H335.821ZM301 266.536V288.536H335.821V266.536V244.536H301V266.536ZM335.821 266.536H313.821V301.357H335.821H357.821V266.536H335.821ZM335.821 301.357V279.357H301V301.357V323.357H335.821V301.357ZM301 301.357H323V266.536H301H279V301.357H301ZM301 231.714V253.714H335.821V231.714V209.714H301V231.714ZM335.821 231.714H313.821V266.536H335.821H357.821V231.714H335.821ZM335.821 266.536V244.536H301V266.536V288.536H335.821V266.536ZM301 266.536H323V231.714H301H279V266.536H301ZM301 301.357V323.357H335.821V301.357V279.357H301V301.357ZM335.821 301.357H313.821V336.179H335.821H357.821V301.357H335.821ZM335.821 336.179V314.179H301V336.179V358.179H335.821V336.179ZM301 336.179H323V301.357H301H279V336.179H301ZM335.821 231.714V253.714H370.643V231.714V209.714H335.821V231.714ZM370.643 231.714H348.643V266.536H370.643H392.643V231.714H370.643ZM370.643 266.536V244.536H335.821V266.536V288.536H370.643V266.536ZM335.821 266.536H357.821V231.714H335.821H313.821V266.536H335.821ZM370.643 231.714V253.714H405.464V231.714V209.714H370.643V231.714ZM405.464 231.714H383.464V266.536H405.464H427.464V231.714H405.464ZM405.464 266.536V244.536H370.643V266.536V288.536H405.464V266.536ZM370.643 266.536H392.643V231.714H370.643H348.643V266.536H370.643ZM370.643 196.893V218.893H405.464V196.893V174.893H370.643V196.893ZM405.464 196.893H383.464V231.714H405.464H427.464V196.893H405.464ZM405.464 231.714V209.714H370.643V231.714V253.714H405.464V231.714ZM370.643 231.714H392.643V196.893H370.643H348.643V231.714H370.643ZM335.821 196.893V218.893H370.643V196.893V174.893H335.821V196.893ZM370.643 196.893H348.643V231.714H370.643H392.643V196.893H370.643ZM370.643 231.714V209.714H335.821V231.714V253.714H370.643V231.714ZM335.821 231.714H357.821V196.893H335.821H313.821V231.714H335.821ZM405.464 196.893V218.893H440.286V196.893V174.893H405.464V196.893ZM440.286 196.893H418.286V231.714H440.286H462.286V196.893H440.286ZM440.286 231.714V209.714H405.464V231.714V253.714H440.286V231.714ZM405.464 231.714H427.464V196.893H405.464H383.464V231.714H405.464Z" fill="url(#paint0_linear_32_145)" mask="url(#path-1-outside-1_32_145)"/>
<defs>
<linearGradient id="paint0_linear_32_145" x1="4" y1="197" x2="598" y2="197" gradientUnits="userSpaceOnUse">
<stop offset="0.115385" stop-color="#FFC403"/>
<stop offset="0.846154" stop-color="#CB2902"/>
</linearGradient>
</defs>
</svg>
